<svg id="Layer_1" data-name="Layer 1" xmlns="http://www.w3.org/2000/svg" viewBox="0 0 41.545 23.35194"><defs><style>.cls-1{fill:#ec1c24;}.cls-1,.cls-2,.cls-3,.cls-4{fill-rule:evenodd;}.cls-2{fill:#2e3191;}.cls-3{fill:#00a551;}.cls-4{fill:#231f20;}.cls-5{fill:#6d6e70;}.cls-6{fill:#6c6d70;}</style></defs><path class="cls-1" d="M16.7672,8.81808,21.85758,17.635H11.35612A10.8631,10.8631,0,0,1,16.7672,8.81808"/><path class="cls-2" d="M16.76607,8.81845A10.8569,10.8569,0,0,0,9.75992,17.635H1.49445l3.53728-6.1267A10.86027,10.86027,0,0,1,16.76607,8.81845"/><path class="cls-3" d="M11.676,0l5.09084,8.8175.00031.00051-.00088.00031a10.8692,10.8692,0,0,0-9.8313-.6066Z"/><path class="cls-4" d="M18.702,18.57146a.02793.02793,0,0,1,.03068,0,2.68019,2.68019,0,0,0,.39321.59584.48625.48625,0,0,0,.23953-.086,8.37678,8.37678,0,0,1-.52827-.98282.49226.49226,0,0,0-.1781.06141c-.10175.23189-.43621.79242-.54061.96444,0,.01226.00614.03068.01842.03068a.3881.3881,0,0,0,.20883-.0491,2.98609,2.98609,0,0,0,.35631-.53441m2.34636,2.64788v2.01589l-.4525.07476V19.87511l.41666-.07472v.4924l.15564-.18016a1.35755,1.35755,0,0,1,.36344-.27641,1.13008,1.13008,0,0,1,.259-.10245,1.08911,1.08911,0,0,1,.28975-.03782,1.6221,1.6221,0,0,1,.43822.06143,1.17621,1.17621,0,0,1,.40847.20985,1.04963,1.04963,0,0,1,.30815.4126,1.60953,1.60953,0,0,1,.11673.65113v2.20427L22.8994,23.31V20.92038a.82648.82648,0,0,0-.09312-.36959.80488.80488,0,0,0-.29282-.31944.87882.87882,0,0,0-.49351-.13.88959.88959,0,0,0-.33676.06041.78926.78926,0,0,0-.26315.173,1.10256,1.10256,0,0,0-.29488.46385A1.486,1.486,0,0,0,21.0484,21.21934Zm-2.45607.02352a.8953.8953,0,0,0-.2263.0287.93349.93349,0,0,0-.214.08189.80338.80338,0,0,0-.31636.30617.90177.90177,0,0,0-.12179.46884.74945.74945,0,0,0,.14127.44642.80726.80726,0,0,0,.342.26927,1.177,1.177,0,0,0,.45864.08806.88083.88083,0,0,0,.33683-.06352.93622.93622,0,0,0,.28667-.18528.83947.83947,0,0,0,.26108-.64807.53894.53894,0,0,0-.02147-.15768.94782.94782,0,0,0-.06864-.16381.79573.79573,0,0,0-.19964-.2508.91442.91442,0,0,0-.3-.16182A1.12831,1.12831,0,0,0,18.59233,21.24286Zm1.35857-.44635v2.4377l-.41054.06345V22.884a1.56832,1.56832,0,0,1-.343.29589,1.08808,1.08808,0,0,1-.62861.172,1.39357,1.39357,0,0,1-.66039-.1546,1.13867,1.13867,0,0,1-.46478-.44843,1.36917,1.36917,0,0,1-.171-.6993,1.15641,1.15641,0,0,1,.16381-.604,1.22528,1.22528,0,0,1,.45457-.44222,1.28451,1.28451,0,0,1,.297-.128,1.1636,1.1636,0,0,1,.31736-.043,1.39215,1.39215,0,0,1,.515.088,1.30823,1.30823,0,0,1,.33065.18022,1.19111,1.19111,0,0,1,.14441.13106v-.4116a.81307.81307,0,0,0-.14742-.50372.74907.74907,0,0,0-.62045-.20371,2.04805,2.04805,0,0,0-.50578.06349,2.94783,2.94783,0,0,0-.43615.14329,1.05615,1.05615,0,0,0-.20066.09625l.1679-.54055a2.51508,2.51508,0,0,1,.38085-.09418,3.22273,3.22273,0,0,1,.66241-.07372,1.5437,1.5437,0,0,1,.50372.07472.92448.92448,0,0,1,.65114,1.01458ZM16.95831,18.8912H15.67445V23.223l-.52826.07471V18.8912H13.7456l.14127-.46782h3.07144ZM11.4451,23.223l-.45556.06342V20.8815a.88514.88514,0,0,0-.17817-.54056.70443.70443,0,0,0-.602-.23957.93051.93051,0,0,0-.3317.05529.7255.7255,0,0,0-.24773.15459.84193.84193,0,0,0-.23651.43611,2.76987,2.76987,0,0,0-.05116.54775V23.223l-.4525.09932V20.99208a1.33889,1.33889,0,0,0-.13827-.62352q-.13818-.26722-.6184-.26719a.73955.73955,0,0,0-.35931.084.85716.85716,0,0,0-.27641.24259,1.339,1.339,0,0,0-.2191.816v1.979l-.45563.09932v-3.4615l.44437-.0727v.50472l.11052-.18016a.94653.94653,0,0,1,.28873-.27026.91074.91074,0,0,1,.22418-.10653.87957.87957,0,0,1,.26729-.03989,1.30366,1.30366,0,0,1,.49758.08392,1.43129,1.43129,0,0,1,.18422.087.7477.7477,0,0,1,.14642.10544.97537.97537,0,0,1,.17609.20991l.06349.11053a1.12467,1.12467,0,0,1,.44942-.4525,1.39481,1.39481,0,0,1,.302-.12492,1.10784,1.10784,0,0,1,.31021-.044,1.3231,1.3231,0,0,1,.559.12288,1.01134,1.01134,0,0,1,.43409.37778,1.13092,1.13092,0,0,1,.16482.62452ZM4.84673,21.24286a.89507.89507,0,0,0-.2263.0287.932.932,0,0,0-.214.08189.80333.80333,0,0,0-.31637.30617.90177.90177,0,0,0-.12179.46884.74965.74965,0,0,0,.14127.44642.80744.80744,0,0,0,.34191.26927,1.17748,1.17748,0,0,0,.4587.08806.88075.88075,0,0,0,.33682-.06352.93614.93614,0,0,0,.28668-.18528.83947.83947,0,0,0,.26108-.64807.541.541,0,0,0-.02147-.15768.94782.94782,0,0,0-.06864-.16381.79573.79573,0,0,0-.19964-.2508.91442.91442,0,0,0-.3-.16182A1.12835,1.12835,0,0,0,4.84673,21.24286Zm1.35857-.44635v2.4377l-.41054.06345V22.884a1.56832,1.56832,0,0,1-.343.29589,1.08824,1.08824,0,0,1-.62865.172,1.39352,1.39352,0,0,1-.66035-.1546,1.1388,1.1388,0,0,1-.46476-.44843,1.369,1.369,0,0,1-.171-.6993,1.15624,1.15624,0,0,1,.16383-.604,1.22508,1.22508,0,0,1,.45455-.44222,1.28568,1.28568,0,0,1,.29688-.128,1.16458,1.16458,0,0,1,.31743-.043,1.3916,1.3916,0,0,1,.51493.088,1.309,1.309,0,0,1,.33071.18022,1.183,1.183,0,0,1,.14434.13106v-.4116a.81262.81262,0,0,0-.14742-.50372.74881.74881,0,0,0-.62038-.20371,2.04763,2.04763,0,0,0-.50578.06349,2.9451,2.9451,0,0,0-.43615.14329,1.05294,1.05294,0,0,0-.20063.09625l.16787-.54055a2.51577,2.51577,0,0,1,.38087-.09418,3.2224,3.2224,0,0,1,.66239-.07372,1.54357,1.54357,0,0,1,.50372.07472,1.03054,1.03054,0,0,1,.36959.213A1.03808,1.03808,0,0,1,6.2053,20.79651ZM3.21271,18.8912H1.92885V23.223l-.52826.07471V18.8912H0l.14127-.46782H3.21271Z"/><path class="cls-5" d="M40.28835,21.19567H40.0204a.714.714,0,0,1,.19018-.5052.64365.64365,0,0,1,.49426-.2046.62958.62958,0,0,1,.47435.201.67459.67459,0,0,1,.192.48342.62524.62524,0,0,1-.27522.5034.7218.7218,0,0,1,.3259.29149.80131.80131,0,0,1,.12315.42551.85934.85934,0,0,1-.8619.8619.79677.79677,0,0,1-.60473-.26257.85064.85064,0,0,1-.239-.62106h.26793a.73312.73312,0,0,0,.09056.344.54719.54719,0,0,0,.478.28249.59667.59667,0,0,0,.60109-.6011.56721.56721,0,0,0-.11222-.34225.59246.59246,0,0,0-.28612-.21545,1.473,1.473,0,0,0-.36214-.03624v-.23172h.09056a.46847.46847,0,0,0,.344-.09056.39594.39594,0,0,0,.1521-.32957.3826.3826,0,0,0-.12125-.29149.41979.41979,0,0,0-.29881-.11411.35034.35034,0,0,0-.28609.134.4903.4903,0,0,0-.10866.31869"/><path class="cls-5" d="M38.38,22.62247h.268a.33943.33943,0,0,0,.09959.26249.34651.34651,0,0,0,.2589.11048.35256.35256,0,0,0,.24624-.09231.30641.30641,0,0,0,.10142-.23719q0-.268-.3839-.38025a.8995.8995,0,0,1-.35849-.17381.49261.49261,0,0,1-.15933-.37666.52254.52254,0,0,1,.16662-.39649.568.568,0,0,1,.40553-.15756.53111.53111,0,0,1,.38389.1593.50955.50955,0,0,1,.163.37666h-.268a.25619.25619,0,0,0-.08692-.20277.32307.32307,0,0,0-.22092-.076.26764.26764,0,0,0-.19372.0796.2813.2813,0,0,0,.02713.42014.82072.82072,0,0,0,.239.105,1.046,1.046,0,0,1,.38752.19189.48117.48117,0,0,1,.16654.38752.605.605,0,0,1-.181.45447.63373.63373,0,0,1-.45994.17565.58164.58164,0,0,1-.43455-.18833A.56673.56673,0,0,1,38.38,22.62247Z"/><path class="cls-5" d="M29.35039,22.62247h.268a.33943.33943,0,0,0,.09959.26249.34652.34652,0,0,0,.2589.11048.3526.3526,0,0,0,.24625-.09231.30643.30643,0,0,0,.10141-.23719q0-.268-.3839-.38025a.8995.8995,0,0,1-.35849-.17381.49261.49261,0,0,1-.15933-.37666.52254.52254,0,0,1,.16662-.39649.56806.56806,0,0,1,.40553-.15756.53113.53113,0,0,1,.3839.1593.50958.50958,0,0,1,.16295.37666h-.268a.25618.25618,0,0,0-.08691-.20277.3231.3231,0,0,0-.22093-.076.26762.26762,0,0,0-.19371.0796.28129.28129,0,0,0,.02712.42014.82072.82072,0,0,0,.239.105,1.046,1.046,0,0,1,.38752.19189.48117.48117,0,0,1,.16654.38752.605.605,0,0,1-.181.45447.63371.63371,0,0,1-.45993.17565.58166.58166,0,0,1-.43456-.18833A.56677.56677,0,0,1,29.35039,22.62247Z"/><path class="cls-5" d="M38.14459,21.2174h-.297a.99371.99371,0,0,0-.402-.34766,1.19048,1.19048,0,0,0-.53235-.12679,1.14471,1.14471,0,0,0-1.119,1.11543,1.123,1.123,0,0,0,1.655,1.0031,1.18928,1.18928,0,0,0,.40917-.35492h.297a1.3693,1.3693,0,0,1-.51062.53961,1.34357,1.34357,0,0,1-.71344.20642,1.36625,1.36625,0,0,1-.99767-.402,1.339,1.339,0,0,1-.40743-.99225,1.31663,1.31663,0,0,1,.40561-.97055,1.33865,1.33865,0,0,1,.97775-.402,1.3809,1.3809,0,0,1,.77134.22448A1.09914,1.09914,0,0,1,38.14459,21.2174Z"/><path class="cls-6" d="M29.043,21.21587H28.7467a1.04343,1.04343,0,0,0-.40265-.34187,1.218,1.218,0,0,0-.5318-.12915,1.142,1.142,0,0,0-1.12438,1.11678,1.06911,1.06911,0,0,0,.34187.7977,1.08558,1.08558,0,0,0,.7977.33427,1.04311,1.04311,0,0,0,.51661-.12915,1.24691,1.24691,0,0,0,.41024-.35706h.29629a1.33328,1.33328,0,0,1-.509.53939,1.36159,1.36159,0,0,1-.71413.20513,1.38607,1.38607,0,0,1-1.00282-2.36271,1.40959,1.40959,0,0,1,1.75494-.17474,1.132,1.132,0,0,1,.46342.50141Z"/><path class="cls-6" d="M30.831,23.20632v-.23551l1.02561-.98762a3.82463,3.82463,0,0,0,.28109-.30389.64748.64748,0,0,0,.13675-.37986.5116.5116,0,0,0-.16713-.39505.61175.61175,0,0,0-.41785-.15954.54578.54578,0,0,0-.31908.09876.51529.51529,0,0,0-.21272.2659,1.023,1.023,0,0,0-.038.2887h-.2659a.86479.86479,0,0,1,.22791-.65336.841.841,0,0,1,.63056-.2583.76769.76769,0,0,1,.57739.23551.78131.78131,0,0,1,.2583.57738.84964.84964,0,0,1-.15954.49382,3.37623,3.37623,0,0,1-.35707.37985l-.82808.79011h1.3295v.2431Z"/><path class="cls-5" d="M34.49948,21.85657v.27426H33.45672v-.27426Z"/></svg>