<svg id="Layer_1" data-name="Layer 1" xmlns="http://www.w3.org/2000/svg" viewBox="0 0 22.49623 16.32898"><defs><style>.cls-1{fill:#ec1c24;}.cls-1,.cls-2,.cls-3,.cls-4{fill-rule:evenodd;}.cls-2{fill:#2e3191;}.cls-3{fill:#00a551;}.cls-4{fill:#231f20;}.cls-5{fill:#6d6e70;}.cls-6{fill:#6c6d70;}</style></defs><path class="cls-1" d="M11.72456,6.16609,15.284,12.33135H7.94083a7.59609,7.59609,0,0,1,3.78373-6.16526"/><path class="cls-2" d="M11.72377,6.16635a7.59172,7.59172,0,0,0-4.89909,6.165H1.045L3.51846,8.04722a7.59415,7.59415,0,0,1,8.20531-1.88087"/><path class="cls-3" d="M8.1645,0l3.5598,6.16569.00021.00035-.00061.00022a7.60032,7.60032,0,0,0-6.87459-.42417Z"/><path class="cls-4" d="M13.07751,12.9862a.01954.01954,0,0,1,.02146,0,1.87458,1.87458,0,0,0,.27494.41665.34.34,0,0,0,.1675-.06017,5.85653,5.85653,0,0,1-.36939-.68724.34422.34422,0,0,0-.12454.04294c-.07115.16215-.305.5541-.378.67439,0,.00857.00429.02146.01288.02146a.27144.27144,0,0,0,.146-.03434,2.088,2.088,0,0,0,.24915-.37369m1.6407,1.85154v1.40963l-.31641.05227V13.89778l.29136-.05224v.34431l.10882-.126a.94936.94936,0,0,1,.25415-.19328.79038.79038,0,0,1,.1811-.07164.76155.76155,0,0,1,.20261-.02645,1.13433,1.13433,0,0,1,.30643.043.82252.82252,0,0,1,.28562.14674.734.734,0,0,1,.21548.28851,1.12543,1.12543,0,0,1,.08163.45531v1.54135l-.31646.05227V14.62869a.57806.57806,0,0,0-.06511-.25843.56288.56288,0,0,0-.20476-.22337.61455.61455,0,0,0-.34509-.09089.62227.62227,0,0,0-.23549.04224.552.552,0,0,0-.184.12094.77105.77105,0,0,0-.20619.32435A1.03931,1.03931,0,0,0,14.71821,14.83774Zm-1.71741.01645a.62616.62616,0,0,0-.15825.02007.65244.65244,0,0,0-.14962.05727.56162.56162,0,0,0-.22122.21408.63056.63056,0,0,0-.08516.32784.524.524,0,0,0,.09878.31216.56442.56442,0,0,0,.23913.18829.82288.82288,0,0,0,.3207.06158.616.616,0,0,0,.23553-.04441.65489.65489,0,0,0,.20046-.12956.587.587,0,0,0,.18256-.45317.37654.37654,0,0,0-.015-.11026.66207.66207,0,0,0-.048-.11455.55656.55656,0,0,0-.1396-.17537.63946.63946,0,0,0-.20974-.11315A.789.789,0,0,0,13.0008,14.85419Zm.95-.31211v1.70458l-.28707.04436V16.0018a1.0969,1.0969,0,0,1-.23982.20691.76086.76086,0,0,1-.43956.12027.97458.97458,0,0,1-.46179-.1081.79626.79626,0,0,1-.325-.31357.95737.95737,0,0,1-.11958-.489.80868.80868,0,0,1,.11454-.42238.85682.85682,0,0,1,.31786-.30923.89828.89828,0,0,1,.20765-.0895.8135.8135,0,0,1,.22191-.03007.9736.9736,0,0,1,.36011.06155.91549.91549,0,0,1,.23121.126.83217.83217,0,0,1,.101.09165v-.28781a.56852.56852,0,0,0-.10308-.35223.52381.52381,0,0,0-.43386-.14245,1.43229,1.43229,0,0,0-.35367.0444,2.06212,2.06212,0,0,0-.305.10019.738.738,0,0,0-.14031.06731l.1174-.378a1.76061,1.76061,0,0,1,.26632-.06585,2.25341,2.25341,0,0,1,.46319-.05155,1.07938,1.07938,0,0,1,.35223.05225.64642.64642,0,0,1,.45531.70945Zm-2.09258-1.3323h-.89775v3.029l-.36939.05224V13.20978H9.61169l.09879-.32713H11.8582Zm-3.85514,3.029-.31856.04435V14.60151a.619.619,0,0,0-.12458-.378.49259.49259,0,0,0-.421-.16752.65054.65054,0,0,0-.23194.03866.50741.50741,0,0,0-.17323.1081.58874.58874,0,0,0-.16538.30495,1.93693,1.93693,0,0,0-.03578.383v1.348l-.31641.06945V14.67884a.93629.93629,0,0,0-.09668-.436Q6.02289,14.056,5.6871,14.056a.51711.51711,0,0,0-.25125.05871.59923.59923,0,0,0-.19328.16963.93628.93628,0,0,0-.15321.57061v1.38383l-.3186.06945V13.88776l.31072-.05084v.35293l.07729-.126a.662.662,0,0,1,.20189-.189.63707.63707,0,0,1,.15676-.07449.61519.61519,0,0,1,.1869-.0279.91147.91147,0,0,1,.34794.05869,1.00148,1.00148,0,0,1,.12882.06086.52263.52263,0,0,1,.10238.07373.68145.68145,0,0,1,.12313.14678l.0444.07729a.78649.78649,0,0,1,.31426-.31641.97552.97552,0,0,1,.2112-.08736.77484.77484,0,0,1,.21691-.03079.92536.92536,0,0,1,.3909.08592.70723.70723,0,0,1,.30354.26417.79081.79081,0,0,1,.11526.4367ZM3.38911,14.85419a.626.626,0,0,0-.15825.02007.65156.65156,0,0,0-.14962.05727.56162.56162,0,0,0-.22122.21408.63057.63057,0,0,0-.08517.32784.52417.52417,0,0,0,.09879.31216.56458.56458,0,0,0,.23908.18829.8233.8233,0,0,0,.32075.06158.616.616,0,0,0,.23553-.04441.65489.65489,0,0,0,.20046-.12956.587.587,0,0,0,.18256-.45317.37822.37822,0,0,0-.015-.11026.66207.66207,0,0,0-.048-.11455.55656.55656,0,0,0-.1396-.17537.63941.63941,0,0,0-.20975-.11315A.78889.78889,0,0,0,3.38911,14.85419Zm.95-.31211v1.70458L4.052,16.291V16.0018a1.0969,1.0969,0,0,1-.23982.20691.761.761,0,0,1-.43959.12027.97454.97454,0,0,1-.46176-.1081.79636.79636,0,0,1-.325-.31357.95728.95728,0,0,1-.11959-.489.8086.8086,0,0,1,.11455-.42238.85672.85672,0,0,1,.31785-.30923.899.899,0,0,1,.2076-.0895.81418.81418,0,0,1,.222-.03007.97323.97323,0,0,1,.36007.06155.916.916,0,0,1,.23125.126.8272.8272,0,0,1,.10093.09165v-.28781a.5682.5682,0,0,0-.10308-.35223.52363.52363,0,0,0-.43381-.14245,1.432,1.432,0,0,0-.35367.0444,2.06016,2.06016,0,0,0-.305.10019.73576.73576,0,0,0-.14029.06731l.11738-.378a1.76136,1.76136,0,0,1,.26633-.06585,2.25317,2.25317,0,0,1,.46318-.05155,1.07934,1.07934,0,0,1,.35223.05225.72071.72071,0,0,1,.25844.14892A.72592.72592,0,0,1,4.33909,14.54208Zm-2.09258-1.3323H1.34876v3.029L.97937,16.291V13.20978H0l.09879-.32713H2.24651Z"/><path class="cls-5" d="M20.77234,15.73986h-.06769a.18042.18042,0,0,1,.048-.12764.16264.16264,0,0,1,.12487-.05169.159.159,0,0,1,.11984.05079.17042.17042,0,0,1,.0485.12212.158.158,0,0,1-.06953.12718.18237.18237,0,0,1,.08233.07364.20243.20243,0,0,1,.03112.1075.21711.21711,0,0,1-.21775.21775.20132.20132,0,0,1-.15278-.06634.21492.21492,0,0,1-.06038-.1569h.06769a.18534.18534,0,0,0,.02288.08691.13825.13825,0,0,0,.12077.07136.15073.15073,0,0,0,.15186-.15186.14334.14334,0,0,0-.02835-.08646.14969.14969,0,0,0-.07229-.05443.37191.37191,0,0,0-.09149-.00916v-.05854h.02288a.11828.11828,0,0,0,.0869-.02288.1.1,0,0,0,.03843-.08326.09666.09666,0,0,0-.03063-.07364.10607.10607,0,0,0-.07549-.02883.08853.08853,0,0,0-.07228.03386.12391.12391,0,0,0-.02745.08052"/><path class="cls-5" d="M20.29021,16.10032h.0677a.08573.08573,0,0,0,.02516.06631.08753.08753,0,0,0,.06541.02791.08908.08908,0,0,0,.06221-.02332.07742.07742,0,0,0,.02562-.05992q0-.06771-.097-.09607a.22729.22729,0,0,1-.09057-.0439.12448.12448,0,0,1-.04025-.09516.132.132,0,0,1,.0421-.10017.14349.14349,0,0,1,.10245-.03981.13419.13419,0,0,1,.097.04025.12874.12874,0,0,1,.04117.09516h-.0677a.06472.06472,0,0,0-.02195-.05123.08163.08163,0,0,0-.05582-.01921.06764.06764,0,0,0-.04894.02011.07107.07107,0,0,0,.00686.10614.20735.20735,0,0,0,.06038.02653.26417.26417,0,0,1,.0979.04848.12155.12155,0,0,1,.04207.0979.15284.15284,0,0,1-.04573.11481.1601.1601,0,0,1-.1162.04438.14692.14692,0,0,1-.10978-.04758A.14315.14315,0,0,1,20.29021,16.10032Z"/><path class="cls-5" d="M18.009,16.10032h.06769a.08573.08573,0,0,0,.02517.06631.08752.08752,0,0,0,.0654.02791.089.089,0,0,0,.06221-.02332.07738.07738,0,0,0,.02562-.05992q0-.06771-.097-.09607a.22729.22729,0,0,1-.09057-.0439.12448.12448,0,0,1-.04025-.09516.132.132,0,0,1,.04209-.10017.14352.14352,0,0,1,.10245-.03981.1342.1342,0,0,1,.097.04025.12874.12874,0,0,1,.04117.09516h-.0677a.06469.06469,0,0,0-.022-.05123.08161.08161,0,0,0-.05581-.01921.06762.06762,0,0,0-.04894.02011.07106.07106,0,0,0,.00685.10614.20744.20744,0,0,0,.06039.02653.26417.26417,0,0,1,.0979.04848.12158.12158,0,0,1,.04207.0979.15281.15281,0,0,1-.04574.11481.16006.16006,0,0,1-.11619.04438.147.147,0,0,1-.10979-.04758A.14318.14318,0,0,1,18.009,16.10032Z"/><path class="cls-5" d="M20.23075,15.74535h-.075a.251.251,0,0,0-.10155-.08783.30067.30067,0,0,0-.13449-.032.28919.28919,0,0,0-.28269.2818.28371.28371,0,0,0,.4181.25342.30041.30041,0,0,0,.10337-.08967h.075a.346.346,0,0,1-.129.13633.33945.33945,0,0,1-.18024.05215.3452.3452,0,0,1-.25205-.10155.33831.33831,0,0,1-.10293-.25068.33266.33266,0,0,1,.10247-.2452.33823.33823,0,0,1,.247-.10155.34882.34882,0,0,1,.19486.05672A.27772.27772,0,0,1,20.23075,15.74535Z"/><path class="cls-6" d="M17.93136,15.745H17.8565a.26348.26348,0,0,0-.10172-.08637.30773.30773,0,0,0-.13435-.03263.28851.28851,0,0,0-.28406.28214.2701.2701,0,0,0,.08637.20153.27426.27426,0,0,0,.20153.08445.26354.26354,0,0,0,.13051-.03263.31492.31492,0,0,0,.10364-.09021h.07486a.33681.33681,0,0,1-.1286.13627.344.344,0,0,1-.18041.05183.35018.35018,0,0,1-.25335-.59691.35611.35611,0,0,1,.44336-.04414.286.286,0,0,1,.11708.12667Z"/><path class="cls-6" d="M18.38306,16.24782v-.0595l.25911-.24951a.96512.96512,0,0,0,.071-.07677.16361.16361,0,0,0,.03455-.096.12925.12925,0,0,0-.04223-.0998.15452.15452,0,0,0-.10556-.04031.13789.13789,0,0,0-.08061.025.13022.13022,0,0,0-.05374.06718.25827.25827,0,0,0-.0096.07293h-.06717a.21846.21846,0,0,1,.05758-.16506.21246.21246,0,0,1,.1593-.06525.19394.19394,0,0,1,.14587.0595.19737.19737,0,0,1,.06525.14586.21465.21465,0,0,1-.0403.12476.85307.85307,0,0,1-.09021.096l-.2092.19961H18.813v.06142Z"/><path class="cls-5" d="M19.30986,15.90682v.06929h-.26343v-.06929Z"/></svg>